<?xml version="1.0" standalone="no"?>
<!DOCTYPE svg PUBLIC "-//W3C//DTD SVG 20010904//EN"
 "http://www.w3.org/TR/2001/REC-SVG-20010904/DTD/svg10.dtd">
<svg version="1.0" xmlns="http://www.w3.org/2000/svg"
 width="1080.000000pt" height="1080.000000pt" viewBox="0 0 1080.000000 1080.000000"
 preserveAspectRatio="xMidYMid meet">

<g transform="translate(0.000000,1080.000000) scale(0.100000,-0.100000)"
fill="#000000" stroke="none">
<path d="M5420 10586 c-151 -14 -173 -25 -195 -99 -8 -28 -15 -59 -15 -68 0
-10 -8 -40 -17 -66 -9 -26 -26 -95 -38 -153 -12 -59 -26 -105 -33 -105 -16 0
-60 88 -77 153 -8 31 -19 60 -25 66 -5 5 -10 18 -10 28 0 33 -63 169 -87 188
-21 16 -38 18 -136 14 -222 -8 -321 -19 -338 -40 -11 -14 -9 -212 5 -399 10
-125 23 -379 22 -422 0 -51 27 -93 70 -105 16 -5 58 -6 94 -2 36 3 83 7 104 9
30 1 46 9 68 33 31 35 33 48 18 138 -13 81 -22 324 -12 324 5 0 20 -33 34 -72
14 -40 42 -113 61 -163 19 -49 44 -115 56 -145 33 -88 46 -94 176 -85 63 4
119 12 131 20 15 10 26 39 43 112 13 54 32 132 43 173 21 77 32 124 43 173 8
37 23 34 23 -5 -1 -86 23 -389 33 -414 15 -41 26 -45 99 -38 141 12 215 11
235 -2 11 -7 38 -16 60 -20 22 -3 74 -15 115 -25 124 -31 167 -24 189 29 7 16
27 36 44 44 29 14 36 14 73 -1 56 -22 72 -37 84 -80 19 -67 35 -78 150 -102
57 -11 115 -25 128 -30 67 -26 120 8 108 68 -3 15 -10 114 -16 218 -6 105 -17
240 -24 300 -7 61 -13 121 -13 135 0 65 -17 198 -28 220 -10 19 -30 30 -86 47
-41 12 -92 24 -114 26 -22 2 -74 12 -117 22 -75 18 -77 17 -120 -4 -40 -19
-48 -30 -86 -108 -23 -49 -55 -110 -72 -138 -17 -27 -37 -66 -45 -85 -8 -19
-22 -48 -32 -65 -9 -16 -29 -56 -45 -87 -16 -32 -34 -60 -39 -63 -5 -4 -9 -14
-9 -24 0 -10 -7 -24 -16 -32 -8 -7 -29 -42 -47 -78 l-31 -66 -7 110 c-4 61
-15 225 -24 365 -10 140 -17 273 -16 296 1 30 -5 48 -22 66 -22 24 -31 26
-108 25 -46 0 -140 -5 -209 -11z m952 -588 c-3 -66 -8 -87 -23 -103 -20 -20
-20 -20 -39 3 -19 23 -19 24 6 80 14 31 30 67 35 80 17 43 24 21 21 -60z"/>
<path d="M7269 10160 c-80 -10 -229 -91 -278 -150 -101 -122 -146 -260 -132
-401 18 -174 127 -315 313 -404 58 -28 83 -34 176 -40 120 -8 185 4 202 35 12
22 -2 166 -21 225 -17 47 -46 65 -112 65 -85 0 -155 50 -178 128 -12 41 -11
46 22 107 30 56 39 67 77 79 39 14 48 13 105 -4 47 -15 73 -31 107 -65 51 -52
83 -58 127 -21 15 13 42 30 58 39 40 20 82 66 90 98 5 19 -3 38 -31 80 -69
101 -118 141 -234 189 -57 24 -200 54 -228 49 -4 -1 -32 -5 -63 -9z"/>
<path d="M8019 9827 c-8 -7 -42 -50 -75 -95 -32 -46 -68 -96 -79 -112 -11 -15
-36 -50 -55 -76 -19 -27 -61 -83 -94 -124 -32 -41 -64 -86 -70 -100 -11 -25
-35 -57 -103 -142 -44 -53 -45 -97 -2 -132 17 -14 41 -29 55 -32 13 -3 24 -10
24 -14 0 -5 22 -24 49 -44 69 -51 103 -49 155 8 23 24 52 63 66 86 57 97 86
102 166 34 73 -63 72 -79 -12 -191 -76 -100 -86 -141 -44 -174 86 -66 203
-139 223 -139 29 0 67 40 143 150 33 46 69 98 81 115 13 16 44 61 70 99 27 38
57 81 68 96 11 15 29 40 40 56 11 16 40 55 65 87 63 82 80 109 80 130 0 20
-50 72 -96 99 -16 10 -49 33 -74 53 -60 47 -66 49 -98 36 -26 -12 -64 -56
-107 -127 -35 -56 -56 -74 -88 -74 -61 0 -137 64 -137 115 0 22 25 65 83 144
61 83 61 112 -1 156 -23 16 -70 51 -104 78 -63 48 -98 58 -129 34z"/>
<path d="M2728 9815 c-109 -30 -481 -279 -494 -331 -5 -19 5 -41 42 -96 27
-39 56 -81 64 -94 8 -13 48 -71 88 -129 39 -59 72 -110 72 -115 0 -4 7 -13 16
-20 8 -8 21 -28 28 -45 8 -18 38 -65 67 -105 30 -39 68 -91 84 -114 48 -64 70
-61 198 24 104 70 107 73 107 109 0 22 -9 50 -23 71 -13 19 -32 48 -43 65
l-19 30 30 -21 c53 -37 119 -53 195 -49 102 6 157 34 236 118 64 67 66 71 61
111 -6 44 -29 68 -120 128 l-49 31 -64 -31 c-60 -30 -94 -39 -94 -27 0 3 8 22
19 43 29 58 34 98 21 170 -14 75 -74 187 -121 226 -70 59 -196 80 -301 51z
m61 -324 c29 -41 26 -66 -12 -95 -40 -31 -65 -26 -92 17 -35 58 -36 76 -7 92
46 24 88 19 111 -14z"/>
<path d="M3872 9623 c-101 -34 -109 -48 -82 -149 23 -84 58 -134 94 -134 26 1
122 32 164 54 18 9 34 27 38 41 13 50 -37 184 -75 205 -28 14 -56 11 -139 -17z"/>
<path d="M1770 9072 c-250 -247 -254 -253 -206 -309 84 -97 576 -584 600 -593
22 -8 33 -7 50 4 11 8 123 115 248 238 279 274 273 260 168 359 -49 47 -80 69
-97 69 -29 0 -154 -109 -215 -187 -32 -42 -46 -53 -69 -53 -24 0 -29 4 -29 25
0 17 28 53 100 126 70 71 100 109 100 125 0 15 -21 48 -57 87 -70 76 -70 77
-111 77 -25 0 -41 -8 -63 -32 -16 -18 -29 -36 -29 -40 0 -11 -133 -114 -158
-122 -19 -6 -22 -4 -22 21 0 22 22 49 105 133 127 128 136 150 79 201 -21 19
-53 49 -72 67 -63 60 -65 59 -322 -196z"/>
<path d="M8935 9143 c-31 -8 -83 -51 -100 -83 -19 -37 -19 -103 -1 -138 8 -15
30 -42 50 -61 29 -28 44 -35 88 -38 66 -5 105 17 148 84 26 41 30 56 27 96 -9
105 -102 166 -212 140z"/>
<path d="M8655 8901 c-28 -12 -320 -302 -345 -343 -29 -48 -25 -75 19 -122 21
-22 59 -62 84 -88 36 -39 51 -48 78 -48 19 0 46 8 61 18 14 9 99 90 187 179
108 109 161 169 161 184 0 12 -31 58 -71 106 -104 121 -123 134 -174 114z"/>
<path d="M9179 8702 c-57 -38 -122 -84 -145 -103 -23 -19 -60 -45 -83 -59 -23
-14 -72 -48 -109 -75 -37 -28 -106 -77 -154 -109 -89 -59 -128 -96 -128 -124
0 -21 126 -208 153 -227 12 -8 30 -15 41 -15 23 0 122 61 246 150 30 22 58 36
63 31 4 -4 -10 -43 -32 -87 -22 -43 -56 -113 -76 -154 -20 -41 -41 -83 -46
-92 -27 -52 5 -140 92 -250 24 -31 52 -68 62 -82 38 -55 95 -38 215 65 30 26
74 57 97 68 23 11 50 30 60 41 10 11 22 20 27 20 10 0 184 126 210 152 10 10
39 28 65 42 57 29 111 80 119 111 7 26 -14 71 -46 100 -12 11 -30 36 -40 55
-30 56 -77 100 -109 100 -16 0 -45 -13 -67 -30 -21 -16 -69 -50 -105 -75 -36
-24 -74 -54 -84 -65 -17 -19 -55 -28 -55 -12 0 4 25 54 56 112 111 210 133
285 100 348 -8 15 -36 55 -62 89 -27 34 -62 80 -78 102 -42 57 -62 54 -187
-27z"/>
<path d="M1360 8537 c-77 -30 -165 -122 -277 -288 -109 -163 -147 -233 -139
-263 3 -12 29 -38 58 -58 29 -19 118 -79 198 -132 199 -132 192 -127 220 -152
14 -12 48 -35 76 -51 28 -15 79 -47 115 -70 81 -54 108 -55 147 -5 57 73 122
181 122 204 0 31 -23 55 -115 118 -71 49 -75 55 -75 90 0 24 7 43 20 55 28 26
88 154 100 214 13 69 0 131 -42 194 -34 51 -113 120 -173 151 -45 24 -166 20
-235 -7z m108 -336 c26 -22 28 -50 7 -91 -12 -23 -22 -30 -45 -30 -17 0 -30 4
-30 9 0 5 -9 13 -20 16 -11 4 -27 19 -35 34 -14 28 -13 29 23 55 43 31 69 32
100 7z"/>
<path d="M9882 7766 c-17 -7 -37 -17 -44 -24 -7 -7 -18 -12 -25 -12 -7 0 -32
-9 -56 -19 -185 -83 -245 -110 -267 -116 -28 -8 -172 -66 -237 -96 -62 -27
-123 -68 -130 -85 -3 -8 7 -45 22 -82 15 -37 34 -85 42 -107 8 -22 23 -58 33
-80 49 -104 70 -155 70 -165 0 -6 9 -30 19 -53 11 -23 30 -67 44 -99 43 -97
89 -102 222 -25 61 36 64 57 20 168 -21 52 -51 118 -68 147 -25 45 -28 57 -19
78 13 28 24 30 47 8 16 -17 61 -108 90 -186 9 -25 28 -57 42 -69 l24 -23 82
28 c130 45 151 83 98 179 -35 64 -75 191 -68 212 5 12 11 13 31 4 18 -9 36
-37 66 -108 96 -225 99 -227 228 -161 l87 45 -1 40 c-1 42 -17 90 -63 190 -15
33 -47 105 -70 160 -114 267 -113 266 -160 264 -14 -1 -41 -7 -59 -13z"/>
<path d="M929 7661 c-68 -22 -157 -80 -199 -129 -17 -20 -40 -46 -50 -57 -10
-12 -38 -68 -63 -126 -57 -132 -68 -222 -42 -332 38 -164 124 -269 281 -347
89 -43 89 -43 199 -43 100 0 116 3 175 30 91 42 160 97 220 177 114 153 151
355 96 531 -35 114 -177 253 -300 295 -79 26 -236 27 -317 1z m189 -366 c94
-40 134 -123 98 -209 -29 -69 -98 -95 -188 -70 -54 15 -64 23 -89 63 -61 95
-20 194 91 222 40 10 49 10 88 -6z"/>
<path d="M1054 6556 c-15 -11 -24 -35 -33 -88 -30 -172 -42 -209 -75 -229 -36
-22 -65 -20 -221 16 -140 33 -318 59 -348 51 -29 -7 -33 -15 -59 -126 -28
-123 -32 -162 -16 -183 15 -20 134 -57 185 -57 18 0 42 -4 55 -9 34 -13 118
-29 258 -47 69 -9 146 -22 172 -29 26 -8 90 -17 142 -21 86 -6 95 -5 103 12
11 21 25 88 48 219 8 50 19 113 25 140 5 28 12 75 15 105 4 30 13 79 22 108
13 48 13 55 -2 78 -20 30 -37 37 -145 58 -103 20 -101 19 -126 2z"/>
<path d="M10278 6454 c-3 -3 -64 -12 -134 -19 -71 -8 -151 -19 -179 -25 -27
-5 -106 -17 -175 -25 -156 -18 -247 -38 -265 -56 -16 -15 -8 -125 20 -304 12
-80 26 -182 41 -313 8 -68 31 -77 156 -63 57 7 111 14 121 17 35 11 38 37 21
179 -24 198 -16 207 198 226 180 17 345 45 374 64 26 17 26 18 19 93 -5 43 -9
100 -9 128 -1 29 -9 62 -19 77 -16 25 -22 27 -91 27 -40 0 -75 -3 -78 -6z"/>
<path d="M1025 5783 c-22 -2 -51 -14 -64 -26 -23 -22 -23 -23 -19 -190 5 -160
4 -169 -15 -182 -37 -26 -48 9 -52 162 -5 169 -4 168 -123 176 -89 5 -118 -2
-137 -32 -5 -9 -10 -75 -11 -146 -1 -94 -5 -138 -16 -159 l-15 -28 -18 29
c-16 23 -20 53 -23 173 -6 195 -6 195 -140 186 -144 -10 -134 18 -130 -372 3
-295 5 -325 21 -341 16 -17 47 -18 370 -20 390 -3 517 3 544 22 17 12 18 38
18 359 0 342 0 346 -22 367 -23 23 -85 31 -168 22z"/>
<path d="M9635 5618 c-11 -6 -23 -15 -26 -21 -6 -9 -17 -146 -25 -322 -2 -49
-7 -150 -10 -222 -6 -112 -4 -136 9 -157 14 -20 14 -26 3 -36 -8 -6 -20 -34
-26 -63 -7 -29 -23 -91 -37 -139 -31 -105 -26 -142 24 -167 43 -21 59 -67 42
-118 -15 -43 -55 -82 -84 -83 -34 0 -84 -37 -90 -67 -4 -15 -22 -81 -41 -146
-25 -86 -32 -123 -25 -136 8 -14 5 -20 -13 -29 -15 -6 -42 -49 -80 -126 -72
-143 -70 -156 31 -209 l65 -34 -59 -6 c-79 -8 -127 -30 -194 -88 -65 -56 -92
-110 -111 -217 -10 -61 -10 -73 5 -95 l16 -25 -29 11 c-40 15 -56 5 -134 -86
-109 -126 -116 -149 -59 -199 21 -18 51 -47 68 -63 16 -17 44 -40 60 -52 17
-11 48 -37 69 -57 31 -28 36 -37 24 -41 -16 -7 -146 17 -193 35 -15 6 -69 15
-120 21 -111 12 -128 6 -193 -68 -101 -114 -152 -183 -152 -207 0 -28 69 -98
141 -145 24 -16 65 -48 91 -72 83 -78 141 -127 233 -196 50 -37 98 -77 107
-89 27 -34 109 -84 136 -84 24 0 47 21 123 112 95 114 100 139 37 192 -24 20
-64 54 -91 76 -26 21 -68 53 -92 70 -25 17 -45 37 -45 45 0 19 -8 19 129 -10
199 -43 212 -45 252 -45 56 0 102 22 135 65 16 21 58 73 92 117 63 78 70 99
45 133 -17 22 -181 164 -223 192 -25 17 -66 51 -91 75 -25 24 -79 69 -120 100
-41 31 -101 81 -134 111 l-60 55 65 -14 c105 -22 134 -19 164 17 14 17 26 34
26 38 0 12 47 61 58 61 5 0 12 -29 14 -65 5 -53 12 -72 41 -112 47 -64 70 -84
150 -128 66 -36 71 -37 145 -33 147 9 242 83 331 258 29 58 61 119 71 135 29
48 90 202 90 228 0 13 -8 31 -17 39 -20 17 -29 21 -293 153 -107 53 -215 108
-240 120 -25 13 -83 42 -130 64 l-85 40 75 2 c41 0 138 2 215 4 252 4 589 26
609 39 23 15 54 91 71 176 7 36 20 90 29 120 34 117 16 166 -77 210 -35 16
-84 43 -110 60 -26 16 -68 44 -94 60 -25 17 -52 30 -58 30 -6 0 -36 17 -66 38
-30 20 -65 43 -79 50 -71 37 -87 46 -105 62 -11 9 -53 34 -93 55 -40 21 -71
39 -69 41 2 2 35 4 73 5 119 2 121 7 123 254 1 112 2 121 23 134 19 12 23 11
36 -5 11 -15 13 -47 9 -154 -3 -75 -1 -142 4 -152 13 -23 70 -38 152 -38 59 0
71 3 93 25 23 23 25 30 19 79 -7 54 8 178 26 225 10 23 10 23 31 5 20 -18 20
-25 14 -164 -5 -133 -4 -148 14 -178 l20 -32 98 0 c141 0 138 -6 147 265 3 88
8 212 11 276 10 181 6 187 -129 194 -45 2 -174 9 -287 15 -373 19 -474 21
-495 8z m293 -1313 c40 -19 72 -39 72 -44 0 -8 -108 -5 -155 4 -11 2 -26 14
-33 26 -12 18 -11 23 5 35 26 19 31 18 111 -21z m-181 -960 c16 -8 38 -24 47
-34 18 -19 17 -21 -3 -48 -35 -45 -68 -54 -108 -31 -41 25 -47 59 -17 106 17
26 39 28 81 7z"/>
<path d="M350 4823 c-19 -3 -41 -9 -47 -15 -20 -16 -15 -76 12 -169 13 -46 25
-94 25 -106 1 -78 23 -84 312 -78 156 4 239 2 233 -4 -6 -5 -32 -18 -60 -29
-102 -40 -243 -101 -283 -121 -23 -12 -48 -21 -56 -21 -8 0 -27 -10 -42 -23
l-27 -23 11 -107 c7 -59 19 -121 27 -137 8 -16 15 -40 15 -54 0 -22 22 -56 37
-56 16 0 251 117 313 155 19 12 60 34 90 49 30 15 78 40 105 56 44 26 123 66
165 84 8 4 33 17 55 31 22 13 49 28 60 33 31 15 46 37 47 69 1 45 -32 221 -58
310 -32 107 -45 116 -179 119 -92 2 -178 7 -540 34 -134 10 -155 10 -215 3z"/>
<path d="M1282 4023 c-97 -50 -103 -68 -63 -165 17 -40 50 -108 72 -150 33
-64 38 -81 29 -98 -23 -43 -49 -17 -105 102 -25 54 -45 101 -45 106 0 18 -42
52 -65 52 -21 0 -143 -44 -172 -63 -6 -4 -16 -20 -21 -37 -9 -25 -6 -38 20
-86 30 -57 78 -192 78 -219 0 -18 -14 -19 -40 -5 -19 10 -28 26 -104 194 -55
121 -71 126 -188 69 -97 -48 -108 -69 -78 -144 12 -30 39 -90 61 -134 21 -45
39 -84 39 -89 0 -4 15 -40 33 -79 19 -40 49 -106 67 -147 46 -103 77 -127 128
-101 9 5 35 16 57 26 22 9 94 41 160 72 66 30 152 68 190 83 174 68 325 139
358 168 27 24 25 35 -55 222 -17 41 -59 132 -79 172 -11 20 -19 42 -19 48 0 6
-16 45 -35 86 -19 41 -35 78 -35 83 0 5 -12 23 -26 40 -35 42 -73 41 -162 -6z"/>
<path d="M1442 3179 c-173 -91 -271 -189 -307 -310 -14 -45 -17 -81 -13 -158
5 -97 7 -105 58 -209 49 -100 80 -146 173 -258 20 -25 37 -48 37 -52 0 -4 20
-28 45 -54 28 -31 53 -48 68 -48 21 0 177 101 252 162 17 14 44 32 60 41 17 9
51 33 77 54 53 43 116 89 162 118 56 36 166 127 176 145 16 31 11 67 -14 97
-13 15 -43 60 -68 98 -95 149 -186 257 -266 317 -111 83 -131 91 -252 96
l-105 4 -83 -43z m264 -329 c15 0 42 -16 69 -41 43 -40 44 -42 30 -69 -16 -32
-57 -67 -140 -121 -33 -21 -69 -45 -80 -53 -11 -7 -32 -16 -47 -20 -65 -15
-108 124 -59 192 42 59 153 127 189 116 8 -2 25 -4 38 -4z"/>
<path d="M8223 2331 c-17 -11 -35 -26 -40 -33 -4 -8 -25 -24 -45 -37 -44 -26
-88 -76 -88 -99 0 -33 42 -100 110 -172 39 -41 105 -117 148 -167 54 -65 84
-93 99 -93 26 0 60 22 161 104 75 61 92 91 74 131 -15 32 -120 162 -137 169
-7 2 -45 45 -84 94 -65 83 -114 122 -153 122 -7 0 -27 -9 -45 -19z"/>
<path d="M2490 2241 c-68 -10 -105 -42 -145 -125 -19 -40 -35 -85 -35 -99 0
-35 27 -104 57 -144 30 -41 29 -43 -9 -32 -49 14 -125 11 -158 -6 -41 -21
-108 -108 -116 -150 -8 -42 1 -90 28 -163 15 -41 41 -75 107 -142 47 -48 101
-95 120 -105 19 -9 62 -39 95 -65 34 -26 78 -57 99 -69 21 -12 49 -29 63 -38
42 -27 68 -5 173 151 8 11 27 35 42 51 29 32 47 55 118 157 24 35 60 81 80
103 36 40 144 194 169 239 16 31 3 65 -40 104 -99 90 -216 178 -362 274 -6 4
-43 21 -83 38 -72 30 -109 34 -203 21z m250 -336 c34 -17 38 -41 15 -85 -19
-36 -68 -50 -95 -25 -27 24 -30 59 -7 94 21 35 44 38 87 16z m-219 -302 c37
-22 33 -55 -13 -97 l-31 -29 -28 34 c-34 41 -35 42 -7 79 25 35 39 37 79 13z"/>
<path d="M7881 2047 c-109 -60 -151 -96 -151 -127 0 -12 16 -48 35 -80 19 -32
35 -62 35 -67 0 -6 13 -28 28 -49 46 -64 73 -115 66 -125 -6 -10 -125 51 -159
82 -34 30 -197 109 -226 109 -35 0 -113 -35 -169 -76 -25 -18 -66 -43 -90 -56
-67 -35 -73 -63 -30 -141 18 -34 46 -78 61 -97 15 -19 41 -60 57 -90 43 -82
126 -218 166 -275 19 -27 49 -77 65 -110 41 -82 84 -125 126 -125 27 0 74 25
95 50 3 4 25 16 50 28 66 31 100 67 100 103 0 30 -17 60 -132 233 -21 32 -37
65 -34 73 6 15 38 -1 156 -76 96 -62 201 -111 237 -111 40 0 69 14 183 90 47
31 93 59 103 63 25 9 22 67 -6 119 -54 98 -100 174 -115 191 -21 23 -55 80
-81 135 -11 23 -38 68 -59 100 -40 59 -80 123 -125 203 -50 89 -68 91 -186 26z"/>
<path d="M3227 1799 c-35 -21 -92 -162 -81 -203 5 -20 29 -36 118 -80 61 -29
130 -62 153 -71 66 -28 66 -82 -1 -70 -16 3 -74 28 -129 55 -143 71 -151 69
-211 -45 -39 -74 -42 -94 -25 -128 15 -28 25 -35 69 -47 46 -13 177 -91 195
-117 14 -19 12 -21 -16 -27 -25 -5 -56 6 -154 54 -177 86 -203 82 -241 -35 -9
-27 -20 -54 -25 -59 -15 -17 -10 -62 9 -78 21 -19 88 -53 212 -111 52 -24 153
-72 224 -107 130 -63 164 -72 190 -51 7 6 46 77 86 159 39 81 116 235 170 342
113 228 139 293 124 318 -9 14 -165 103 -224 128 -54 23 -149 67 -170 80 -59
35 -215 104 -234 104 -12 0 -29 -5 -39 -11z"/>
<path d="M8645 1774 c-96 -49 -129 -137 -81 -218 62 -105 190 -123 270 -37 24
25 31 42 34 90 5 67 -14 109 -69 156 -36 30 -106 34 -154 9z"/>
<path d="M6738 1489 c-85 -25 -200 -89 -256 -143 -103 -98 -108 -169 -26 -384
50 -130 44 -129 255 -55 153 54 164 60 167 84 2 15 -5 44 -15 65 -17 37 -21
39 -63 39 -41 0 -45 2 -48 27 -3 24 1 28 32 33 41 8 97 -8 147 -41 29 -20 38
-35 49 -78 15 -64 10 -89 -28 -142 -24 -33 -38 -42 -81 -52 -29 -7 -78 -12
-109 -12 -31 0 -62 -4 -69 -8 -7 -4 -17 -30 -23 -57 -6 -27 -16 -55 -21 -61
-6 -7 -13 -37 -16 -67 -11 -103 24 -125 205 -128 l120 -2 125 62 c138 69 148
78 216 202 60 111 75 167 66 262 -21 240 -156 407 -374 458 -97 23 -169 23
-253 -2z"/>
<path d="M4103 1419 c-21 -8 -63 -55 -63 -71 0 -5 -24 -60 -54 -121 -29 -62
-57 -123 -61 -137 -4 -14 -30 -72 -57 -130 -27 -57 -58 -129 -68 -160 -20 -58
-39 -102 -70 -160 -11 -19 -19 -45 -20 -57 0 -31 43 -60 103 -68 28 -4 81 -15
117 -25 64 -17 67 -17 102 1 32 16 39 27 53 76 20 70 49 149 80 223 13 30 30
74 37 98 7 23 15 42 18 42 3 0 4 -102 4 -228 -2 -178 1 -232 12 -249 15 -24
77 -45 191 -64 94 -16 111 -5 149 93 15 40 34 82 41 93 7 11 23 54 37 95 64
196 81 199 71 13 -4 -76 -11 -172 -15 -213 -6 -53 -5 -82 3 -100 20 -41 84
-65 247 -91 108 -17 103 -45 97 467 -4 339 -7 437 -18 460 -20 42 -94 63 -306
91 -39 5 -46 2 -78 -30 -19 -19 -35 -43 -35 -54 0 -10 -6 -27 -14 -38 -7 -11
-19 -38 -26 -60 -7 -22 -25 -67 -40 -100 -16 -33 -33 -72 -39 -87 -6 -16 -16
-28 -23 -28 -10 0 -13 47 -13 209 0 206 0 210 -24 234 -17 19 -41 29 -95 38
-39 6 -105 19 -147 29 -42 9 -85 13 -96 9z"/>
<path d="M5723 1260 c-68 -16 -83 -56 -62 -170 17 -96 29 -104 150 -98 124 7
132 16 130 135 -2 123 -13 137 -112 140 -41 1 -89 -2 -106 -7z"/>
</g>
</svg>
