<?xml version="1.0" standalone="no"?>
<!DOCTYPE svg PUBLIC "-//W3C//DTD SVG 20010904//EN"
 "http://www.w3.org/TR/2001/REC-SVG-20010904/DTD/svg10.dtd">
<svg version="1.0" xmlns="http://www.w3.org/2000/svg"
 width="500.000000pt" height="500.000000pt" viewBox="0 0 500.000000 500.000000"
 preserveAspectRatio="xMidYMid meet">

<g transform="translate(0.000000,500.000000) scale(0.100000,-0.100000)"
fill="#000000" stroke="none">
<path d="M2550 4000 c-28 -49 -55 -90 -60 -90 -5 0 -32 38 -60 85 -42 70 -56
85 -76 85 l-24 0 2 -162 c3 -160 3 -163 25 -166 22 -3 22 -1 25 120 l3 123 42
-67 c23 -36 47 -69 53 -73 16 -10 35 10 77 82 l38 65 5 -124 c5 -115 6 -123
25 -123 11 0 20 6 19 13 -1 6 -2 82 -2 167 -2 146 -3 155 -21 155 -14 0 -34
-26 -71 -90z"/>
<path d="M2747 3939 c-9 -12 -14 -26 -11 -31 9 -14 36 -9 49 9 20 27 79 6 83
-29 4 -30 -3 -33 -92 -41 -26 -3 -55 -12 -63 -20 -21 -20 -20 -63 2 -87 22
-24 76 -35 102 -22 15 8 22 7 31 -9 13 -21 37 -25 47 -9 4 6 2 17 -4 23 -7 9
-6 29 4 68 32 120 14 159 -79 167 -47 4 -55 2 -69 -19z m107 -136 c-7 -31 -38
-63 -61 -63 -26 0 -53 20 -53 40 0 28 9 32 113 49 4 0 5 -11 1 -26z"/>
<path d="M3012 3863 c-18 -7 -72 -121 -72 -151 0 -36 17 -60 60 -82 50 -25 72
-25 95 0 24 27 7 48 -23 29 -25 -15 -69 -4 -85 22 -13 20 14 97 47 136 21 24
23 25 59 10 31 -13 37 -21 37 -45 0 -18 6 -32 15 -36 19 -7 28 12 23 50 -6 52
-97 91 -156 67z"/>
<path d="M1839 3821 c-12 -16 -27 -28 -33 -25 -6 2 -17 0 -25 -5 -12 -8 -4
-27 39 -103 66 -115 68 -118 86 -111 21 8 18 22 -26 97 -22 37 -40 74 -40 81
0 7 11 24 25 37 16 16 23 32 19 42 -9 23 -21 20 -45 -13z"/>
<path d="M3273 3778 c-145 -189 -153 -201 -142 -215 6 -7 14 -13 18 -13 4 0
33 34 64 75 38 49 65 75 78 75 19 0 69 -41 69 -57 0 -4 -25 -41 -55 -81 -30
-40 -55 -77 -55 -81 0 -5 6 -14 14 -20 11 -10 26 4 75 69 37 50 61 91 61 107
0 29 -52 83 -81 83 -25 0 -24 4 12 55 30 42 32 65 4 65 -8 0 -35 -28 -62 -62z"/>
<path d="M2123 3742 c-17 -11 -4 -52 16 -52 29 0 44 16 36 39 -6 21 -30 27
-52 13z"/>
<path d="M1630 3687 c-19 -12 -42 -36 -52 -53 -23 -40 -15 -62 47 -132 40 -44
52 -52 82 -52 29 0 44 9 79 44 38 37 43 47 35 67 -12 33 -36 31 -37 -3 -1 -31
-38 -67 -70 -68 -11 0 -28 8 -37 18 -18 19 -22 42 -9 42 4 1 29 21 56 45 l49
44 -35 35 c-42 42 -63 44 -108 13z m74 -40 c9 -16 5 -24 -29 -53 l-40 -34 -17
21 c-20 24 -12 48 25 74 27 19 46 16 61 -8z"/>
<path d="M3543 3619 c-13 -13 -6 -39 11 -39 6 0 17 4 25 9 12 8 12 12 2 25
-16 19 -23 20 -38 5z"/>
<path d="M3407 3490 c-55 -52 -84 -86 -80 -95 9 -26 26 -16 113 65 77 72 84
80 69 95 -14 14 -23 8 -102 -65z"/>
<path d="M1455 3508 c-28 -15 -55 -50 -55 -70 0 -10 -9 -22 -21 -28 -11 -6
-19 -15 -17 -20 2 -5 61 -54 132 -110 119 -93 131 -100 145 -85 15 15 13 19
-21 47 l-38 30 30 36 c56 68 40 117 -64 186 -42 28 -60 31 -91 14z m108 -81
c38 -31 45 -54 27 -87 -22 -42 -44 -42 -101 1 -29 21 -56 44 -60 50 -11 18 2
48 28 69 29 22 41 18 106 -33z"/>
<path d="M3492 3400 c-46 -32 -88 -60 -93 -62 -13 -4 0 -38 13 -38 6 0 44 23
85 50 41 28 79 50 84 50 16 0 59 -52 59 -71 0 -12 -28 -37 -80 -71 -78 -52
-95 -73 -66 -84 14 -5 117 57 164 99 33 31 29 72 -12 113 -19 19 -36 42 -38
52 -6 31 -32 22 -116 -38z"/>
<path d="M1292 3265 c-18 -15 -37 -44 -43 -66 -18 -59 -3 -82 84 -125 68 -34
76 -36 102 -23 17 8 39 33 53 61 34 66 23 94 -54 135 -88 47 -105 49 -142 18z
m111 -49 c60 -26 73 -46 55 -84 -21 -42 -41 -48 -90 -27 -91 40 -107 64 -72
113 19 28 40 28 107 -2z"/>
<path d="M3633 3177 c-74 -31 -93 -50 -93 -92 0 -42 32 -110 56 -119 24 -9 54
2 48 19 -3 8 -15 15 -27 17 -16 2 -26 15 -35 42 -11 35 -11 42 5 57 37 36 55
28 80 -36 14 -33 28 -64 33 -68 13 -14 79 20 92 47 24 53 -32 157 -84 156 -13
-1 -47 -11 -75 -23z m127 -92 c0 -25 -36 -53 -50 -38 -4 4 -14 27 -24 51 -16
42 -16 43 6 52 19 7 27 4 46 -16 12 -14 22 -36 22 -49z"/>
<path d="M1076 3024 c-4 -9 -5 -18 -3 -20 12 -13 277 -84 302 -82 37 4 68 49
47 70 -11 11 -16 9 -31 -10 l-17 -24 -141 41 c-78 23 -144 41 -146 41 -3 0 -8
-7 -11 -16z"/>
<path d="M1174 2868 c-46 -22 -61 -126 -24 -166 12 -12 24 -22 28 -22 4 0 33
-4 65 -10 92 -15 130 8 143 87 7 50 -1 80 -28 94 -31 17 -47 -5 -22 -32 19
-22 20 -58 2 -92 -7 -13 -19 -17 -41 -15 l-32 3 3 76 3 76 -32 7 c-38 7 -39 7
-65 -6z m62 -77 c-3 -20 -6 -44 -6 -53 0 -23 -33 -23 -55 -1 -12 11 -15 25
-11 47 7 37 30 56 58 48 17 -4 19 -10 14 -41z"/>
<path d="M3785 2810 l-160 -15 3 -70 c4 -97 11 -125 29 -125 14 0 15 11 10 75
-4 54 -2 75 6 76 7 0 73 6 147 12 118 11 135 14 138 31 2 10 0 21 -5 25 -4 4
-80 0 -168 -9z"/>
<path d="M1120 2601 c0 -16 16 -23 95 -42 52 -13 95 -26 95 -29 0 -4 -40 -25
-90 -48 -82 -37 -107 -60 -82 -76 9 -5 227 97 236 112 16 26 -10 41 -123 71
-65 17 -121 31 -124 31 -4 0 -7 -9 -7 -19z"/>
<path d="M3651 2553 c-20 -16 -25 -32 -29 -80 -4 -54 -2 -62 19 -77 13 -9 27
-16 31 -16 14 0 8 38 -7 44 -35 13 -5 106 35 106 35 0 50 -11 46 -34 -3 -11
-7 -44 -11 -72 l-5 -51 41 -7 c54 -9 85 11 99 65 14 52 5 95 -25 115 -13 9
-57 18 -97 21 -63 5 -76 3 -97 -14z m177 -45 c32 -32 -2 -117 -42 -102 -16 6
-23 65 -10 98 7 19 35 21 52 4z"/>
<path d="M1330 2370 c0 -11 6 -20 14 -20 40 0 62 -91 27 -110 -45 -24 -58 -14
-77 60 l-18 71 -31 -7 c-46 -10 -65 -23 -76 -51 -20 -52 32 -153 78 -153 61 0
157 43 172 77 15 33 -10 128 -39 143 -30 16 -50 12 -50 -10z m-62 -89 c16 -53
15 -68 -7 -74 -23 -6 -34 1 -50 30 -16 31 -14 60 7 72 29 17 38 12 50 -28z"/>
<path d="M3605 2323 c-24 -24 -36 -61 -29 -89 5 -18 1 -31 -15 -45 -11 -11
-21 -24 -21 -28 0 -13 26 -21 36 -11 5 5 43 -3 84 -16 88 -28 114 -25 140 19
34 56 20 137 -25 137 -23 0 -26 -31 -4 -49 20 -16 20 -19 6 -54 -17 -41 -19
-42 -48 -27 -16 9 -19 22 -19 73 0 75 -18 107 -60 107 -16 0 -36 -7 -45 -17z
m62 -35 c4 -7 10 -34 13 -60 7 -52 2 -56 -43 -39 -14 6 -27 21 -31 36 -12 47
38 98 61 63z"/>
<path d="M1310 2099 c-41 -22 -83 -50 -92 -62 -29 -37 -22 -90 23 -172 22 -41
43 -75 47 -75 3 0 70 36 149 81 l143 81 -19 32 c-10 17 -30 52 -45 78 -52 90
-94 98 -206 37z m141 -12 c15 -11 69 -97 69 -110 0 -5 -214 -127 -223 -127
-13 0 -57 92 -57 118 0 35 15 49 104 96 76 39 84 41 107 23z"/>
<path d="M3511 2101 c-10 -17 -2 -24 67 -63 l77 -44 -2 -46 c-1 -32 3 -48 13
-52 16 -6 38 38 30 60 -2 6 4 14 16 17 39 11 12 38 -89 92 -96 52 -103 54
-112 36z"/>
<path d="M3431 1966 c-10 -12 0 -25 63 -77 42 -34 76 -70 76 -79 0 -18 -43
-70 -58 -70 -5 0 -44 27 -85 61 -72 57 -97 66 -97 35 0 -21 151 -136 178 -136
29 0 82 51 82 78 0 11 9 22 20 25 39 10 20 41 -66 107 -98 76 -97 75 -113 56z"/>
<path d="M1598 1760 c-74 -77 -76 -133 -6 -179 l38 -24 -36 -40 c-34 -37 -35
-40 -19 -56 15 -15 20 -12 62 34 26 28 77 86 114 129 l68 80 -54 53 c-73 72
-100 72 -167 3z m131 -16 c17 -14 31 -29 31 -33 0 -13 -102 -121 -114 -121
-23 0 -66 41 -66 63 0 23 86 117 106 117 7 0 26 -12 43 -26z"/>
<path d="M3260 1775 c-13 -15 -8 -23 111 -158 31 -35 36 -37 53 -24 19 14 16
19 -63 106 -46 50 -85 91 -86 91 -1 0 -8 -7 -15 -15z"/>
<path d="M3182 1708 c-18 -18 -16 -22 34 -98 35 -51 45 -75 40 -93 -5 -22 -42
-47 -69 -47 -7 0 -36 36 -65 80 -54 82 -58 86 -81 71 -10 -7 0 -28 45 -97 55
-83 61 -89 97 -92 32 -3 43 2 71 30 19 19 38 32 43 31 6 -2 15 3 21 10 9 11
-1 34 -48 108 -72 112 -73 112 -88 97z"/>
<path d="M2892 1655 c-101 -30 -107 -63 -47 -229 38 -101 51 -126 66 -126 10
0 19 5 19 10 0 6 15 10 33 10 31 0 73 21 89 44 22 31 -19 168 -55 188 -26 14
-94 4 -118 -18 -20 -18 -18 -20 -34 31 -6 21 26 52 64 60 34 7 43 16 33 32 -5
7 -20 7 -50 -2z m80 -139 c8 -7 22 -38 33 -69 21 -63 16 -78 -35 -95 -34 -12
-48 0 -73 66 -25 63 -22 81 16 97 40 18 43 18 59 1z"/>
<path d="M1840 1645 c-19 -23 1 -40 29 -25 18 9 28 7 56 -10 19 -12 35 -28 35
-35 0 -20 -22 -65 -31 -65 -4 0 -36 16 -69 36 -34 20 -63 34 -64 32 -14 -15
-36 -72 -36 -91 0 -41 64 -87 123 -87 39 0 54 14 91 87 41 82 34 111 -34 152
-41 25 -83 27 -100 6z m33 -140 c40 -20 44 -31 24 -59 -16 -21 -57 -14 -83 15
-14 16 -15 23 -5 45 6 14 15 24 19 22 4 -2 24 -12 45 -23z"/>
<path d="M3451 1556 c-9 -10 -8 -16 4 -26 19 -16 41 1 32 24 -8 20 -21 20 -36
2z"/>
<path d="M2064 1438 c-31 -57 -67 -122 -81 -146 -13 -23 -21 -47 -18 -52 16
-26 38 -2 91 96 31 58 59 102 62 99 3 -3 9 -57 12 -120 4 -63 9 -117 11 -119
2 -2 13 -6 24 -8 15 -2 29 14 65 74 25 42 54 92 65 110 l20 33 3 -122 c2 -109
5 -124 22 -133 11 -6 21 -6 24 -1 10 16 -13 334 -24 345 -15 14 -26 -1 -103
-139 l-62 -110 -6 60 c-4 33 -7 99 -8 148 -1 79 -3 87 -20 87 -15 0 -35 -27
-77 -102z"/>
<path d="M2620 1490 c-24 -6 -30 -33 -11 -52 11 -13 51 4 51 21 0 27 -14 38
-40 31z"/>
</g>
</svg>
